<svg width="27" height="27" viewBox="0 0 27 27" fill="none" xmlns="http://www.w3.org/2000/svg">
    <path d="M4.12843 4.75628C5.87619 3.93855 7.74498 3.34426 9.69874 3.00586C9.93869 3.43967 10.219 4.02316 10.4123 4.48732C12.4892 4.17498 14.547 4.17498 16.5857 4.48732C16.7789 4.02316 17.0656 3.43967 17.3077 3.00586C19.2636 3.34426 21.1345 3.94073 22.8823 4.76061C26.4075 10.0877 27.3632 15.2825 26.8853 20.4035C24.5472 22.1496 22.2813 23.2103 20.0536 23.9043C19.5036 23.1473 19.013 22.3426 18.5904 21.4946C19.3953 21.1887 20.1662 20.8113 20.8945 20.3732C20.7013 20.23 20.5123 20.0803 20.3297 19.9263C15.887 22.0043 11.06 22.0043 6.67042 19.9263C6.48566 20.0803 6.29668 20.23 6.10555 20.3732C6.83609 20.8135 7.60907 21.1909 8.41392 21.4967C7.99133 22.3426 7.50289 23.1495 6.95075 23.9065C4.72091 23.2124 2.45288 22.1518 0.114756 20.4035C-0.445894 14.467 1.0725 9.31988 4.12843 4.75628ZM17.9852 17.2541C19.3188 17.2541 20.4125 16.0091 20.4125 14.493C20.4125 12.9768 19.3422 11.7297 17.9852 11.7297C16.6281 11.7297 15.5345 12.9747 15.5579 14.493C15.5557 16.0091 16.6281 17.2541 17.9852 17.2541ZM9.01492 17.2541C10.3486 17.2541 11.4422 16.0091 11.4422 14.493C11.4422 12.9768 10.3719 11.7297 9.01492 11.7297C7.65793 11.7297 6.56424 12.9747 6.58759 14.493C6.58759 16.0091 7.65793 17.2541 9.01492 17.2541Z" fill="#5865F2"/>
</svg>
