<svg width="42" height="28" viewBox="0 0 42 28" fill="none" xmlns="http://www.w3.org/2000/svg">
<path d="M24 27.9978C23.8477 27.9978 23.6953 27.9627 23.5586 27.8923C23.2148 27.7244 23 27.3806 23 26.9978V18.9978H1C0.449219 18.9978 0 18.5525 0 17.9978V9.99781C0 9.44703 0.449219 8.99781 1 8.99781H23V0.997806C23 0.6189 23.2148 0.271244 23.5586 0.103275C23.8984 -0.064694 24.3047 -0.0256305 24.6094 0.204838L41.6094 13.2048C41.8555 13.3923 42 13.6853 42 13.9978C42 14.3103 41.8555 14.6033 41.6055 14.7908L24.6055 27.7908C24.4297 27.9275 24.2148 27.9978 24 27.9978Z" fill="white"/>
</svg>
