<svg width="47" height="47" viewBox="0 0 47 47" fill="none" xmlns="http://www.w3.org/2000/svg">
<path d="M5.7083 46.375C4.3104 46.375 3.1141 45.878 2.1195 44.883C1.1249 43.888 0.6267 42.691 0.625 41.292V15.875C0.625 11.639 2.1076 8.038 5.0729 5.073C8.0382 2.108 11.6389 0.625 15.875 0.625H31.125C35.3611 0.625 38.9618 2.108 41.9271 5.073C44.8924 8.038 46.375 11.639 46.375 15.875V41.292C46.375 42.69 45.8777 43.887 44.883 44.883C43.8884 45.879 42.6913 46.377 41.2917 46.375H5.7083ZM5.7083 41.292H41.2917V15.875C41.2917 13.079 40.2962 10.686 38.3052 8.69501C36.3142 6.70401 33.9208 5.70801 31.125 5.70801H15.875C13.0792 5.70801 10.6858 6.70401 8.6948 8.69501C6.7038 10.686 5.7083 13.079 5.7083 15.875V41.292ZM15.875 23.5C14.4771 23.5 13.2808 23.003 12.2862 22.008C11.2915 21.013 10.7934 19.816 10.7917 18.417C10.79 17.017 11.2881 15.821 12.2862 14.828C13.2842 13.835 14.4805 13.337 15.875 13.333C17.2695 13.33 18.4667 13.828 19.4664 14.828C20.4661 15.828 20.9634 17.024 20.9583 18.417C20.9533 19.809 20.4559 21.007 19.4664 22.008C18.4768 23.009 17.2797 23.507 15.875 23.5ZM31.125 23.5C29.7271 23.5 28.5308 23.003 27.5362 22.008C26.5415 21.013 26.0434 19.816 26.0417 18.417C26.04 17.017 26.5381 15.821 27.5362 14.828C28.5342 13.835 29.7305 13.337 31.125 13.333C32.5195 13.33 33.7167 13.828 34.7164 14.828C35.7161 15.828 36.2134 17.024 36.2083 18.417C36.2033 19.809 35.7059 21.007 34.7164 22.008C33.7268 23.009 32.5297 23.507 31.125 23.5ZM10.7917 41.292V36.208C10.7917 34.81 11.2898 33.614 12.2862 32.62C13.2825 31.625 14.4788 31.127 15.875 31.125H31.125C32.5229 31.125 33.72 31.623 34.7164 32.62C35.7127 33.616 36.21 34.812 36.2083 36.208V41.292H31.125V36.208H26.0417V41.292H20.9583V36.208H15.875V41.292H10.7917Z" fill="white"/>
</svg>
