<svg width="30" height="30" viewBox="0 0 30 30" fill="none" xmlns="http://www.w3.org/2000/svg">
<path d="M15 0C14.4317 0 13.8866 0.252856 13.4848 0.702944C13.0829 1.15303 12.8572 1.76348 12.8572 2.4C12.8575 2.82097 12.9566 3.23444 13.1447 3.59892C13.3327 3.96341 13.6031 4.26608 13.9286 4.47656V7.2H8.57147C6.20471 7.2 4.28579 9.3492 4.28579 12V30H25.7142V12C25.7142 9.3492 23.7953 7.2 21.4285 7.2H16.0714V4.47422C16.3966 4.26394 16.6668 3.96163 16.8548 3.59759C17.0429 3.23356 17.1422 2.82057 17.1428 2.4C17.1428 1.76348 16.9171 1.15303 16.5152 0.702944C16.1134 0.252856 15.5683 0 15 0ZM10.7143 13.2C11.8982 13.2 12.8572 14.274 12.8572 15.6C12.8572 16.926 11.8982 18 10.7143 18C9.5304 18 8.57147 16.926 8.57147 15.6C8.57147 14.274 9.5304 13.2 10.7143 13.2ZM19.2857 13.2C20.4696 13.2 21.4285 14.274 21.4285 15.6C21.4285 16.926 20.4696 18 19.2857 18C18.1018 18 17.1428 16.926 17.1428 15.6C17.1428 14.274 18.1018 13.2 19.2857 13.2ZM1.05479 14.3836C0.770994 14.3886 0.500555 14.5194 0.302823 14.7475C0.105091 14.9755 -0.00377924 15.2821 0.00010715 15.6V22.8C-0.00190074 22.959 0.0243289 23.1169 0.0772718 23.2645C0.130215 23.412 0.208815 23.5463 0.308505 23.6596C0.408195 23.7728 0.526986 23.8627 0.657975 23.9241C0.788964 23.9855 0.929538 24.0171 1.07153 24.0171C1.21352 24.0171 1.35409 23.9855 1.48508 23.9241C1.61607 23.8627 1.73486 23.7728 1.83455 23.6596C1.93424 23.5463 2.01284 23.412 2.06578 23.2645C2.11873 23.1169 2.14496 22.959 2.14295 22.8V15.6C2.14491 15.4395 2.11809 15.2801 2.06407 15.1314C2.01006 14.9826 1.92994 14.8476 1.82848 14.7341C1.72701 14.6207 1.60625 14.5312 1.47336 14.471C1.34046 14.4108 1.19813 14.3811 1.05479 14.3836ZM28.9117 14.3836C28.6279 14.3886 28.3575 14.5194 28.1598 14.7475C27.962 14.9755 27.8532 15.2821 27.857 15.6V22.8C27.855 22.959 27.8813 23.1169 27.9342 23.2645C27.9872 23.412 28.0658 23.5463 28.1654 23.6596C28.2651 23.7728 28.3839 23.8627 28.5149 23.9241C28.6459 23.9855 28.7865 24.0171 28.9285 24.0171C29.0705 24.0171 29.211 23.9855 29.342 23.9241C29.473 23.8627 29.5918 23.7728 29.6915 23.6596C29.7912 23.5463 29.8698 23.412 29.9227 23.2645C29.9757 23.1169 30.0019 22.959 29.9999 22.8V15.6C30.0019 15.4395 29.975 15.2801 29.921 15.1314C29.867 14.9826 29.7869 14.8476 29.6854 14.7341C29.584 14.6207 29.4632 14.5312 29.3303 14.471C29.1974 14.4108 29.0551 14.3811 28.9117 14.3836ZM10.7143 22.8H19.2857C20.4696 22.8 21.4285 23.874 21.4285 25.2V27.6H8.57147V25.2C8.57147 23.874 9.5304 22.8 10.7143 22.8Z" fill="white"/>
</svg>
