<svg width="29" height="21" viewBox="0 0 29 21" fill="none" xmlns="http://www.w3.org/2000/svg">
<path id="Vector" d="M16.5714 21C16.4662 21 16.361 20.9736 16.2666 20.9209C16.0293 20.7949 15.881 20.5371 15.881 20.2499V14.2495H0.690476C0.310175 14.2495 0 13.9155 0 13.4994V7.49894C0 7.08582 0.310175 6.74888 0.690476 6.74888H15.881V0.748413C15.881 0.464212 16.0293 0.203449 16.2666 0.0774624C16.5013 -0.0485243 16.7818 -0.0192244 16.9922 0.15364L28.7303 9.9044C28.9002 10.045 29 10.2648 29 10.4992C29 10.7336 28.9002 10.9533 28.7276 11.094L16.9895 20.8447C16.8681 20.9473 16.7198 21 16.5714 21Z" fill="white"/>
</svg>
