<svg width="56" height="55" viewBox="0 0 56 55" fill="none" xmlns="http://www.w3.org/2000/svg">
<path d="M28.0082 52.917C42.2794 52.917 53.8485 41.537 53.8485 27.5C53.8485 13.463 42.2794 2.08299 28.0082 2.08299C13.7371 2.08299 2.168 13.463 2.168 27.5C2.168 41.537 13.7371 52.917 28.0082 52.917Z" stroke="white" stroke-width="3.75"/>
<path d="M28.0079 12.25V42.75M35.76 21.146C35.76 17.638 32.2897 14.792 28.0079 14.792C23.7262 14.792 20.2559 17.638 20.2559 21.146C20.2559 24.653 23.7262 27.5 28.0079 27.5C32.2897 27.5 35.76 30.347 35.76 33.854C35.76 37.362 32.2897 40.208 28.0079 40.208C23.7262 40.208 20.2559 37.362 20.2559 33.854" stroke="white" stroke-width="3.75" stroke-linecap="round"/>
</svg>
