<svg width="371" height="320" viewBox="0 0 371 320" fill="none" xmlns="http://www.w3.org/2000/svg">
<g clip-path="url(#clip0_2_29)">
<path d="M371 320H28.9542V319.94C20.9533 319.94 13.7072 316.679 8.48397 311.455C3.29093 306.262 0.0603841 299.045 0.0603841 291.074H0V0H37.0155V283.012H371V320ZM251.711 137.686H310.737C313.877 137.686 316.443 140.253 316.443 143.393V259.521C316.443 262.661 313.877 265.227 310.737 265.227H251.711C248.571 265.227 246.005 262.661 246.005 259.521V143.423C246.005 140.283 248.571 137.686 251.711 137.686ZM76.5671 66.639H135.593C138.733 66.639 141.299 69.2055 141.299 72.3457V259.551C141.299 262.691 138.733 265.258 135.593 265.258H76.5671C73.4271 265.258 70.8608 262.691 70.8608 259.551V72.3457C70.8608 69.2055 73.4271 66.639 76.5671 66.639ZM164.154 26.6616H223.15C226.289 26.6616 228.856 29.2282 228.856 32.3684V259.551C228.856 262.691 226.289 265.258 223.15 265.258H164.154C161.014 265.258 158.448 262.691 158.448 259.551V32.3684C158.448 29.2282 161.014 26.6616 164.154 26.6616Z" fill="white"/>
</g>
<defs>
<clipPath id="clip0_2_29">
<rect width="371" height="320" fill="white"/>
</clipPath>
</defs>
</svg>
