<svg width="30" height="30" viewBox="0 0 30 30" fill="none" xmlns="http://www.w3.org/2000/svg">
<path d="M13.9955 0C12.9464 0 12.2126 0.762237 11.6964 1.4276C11.2193 2.03943 10.4436 2.05982 8.99554 2.05982C8.22545 2.05982 7.23772 2.12611 6.62946 2.52889C7.53627 3.91825 8.71931 4.95326 9.79911 5.22094C10.3711 5.3637 10.8315 5.26937 11.25 4.95581C11.9448 4.35418 12.7148 3.70666 13.6607 3.77294C14.3331 3.81628 14.9275 4.19358 15.625 4.9966C15.7506 5.13681 15.9291 5.20819 16.1384 5.22094C16.5095 5.24388 16.9699 5.04249 17.3661 4.71108C17.7846 4.36948 18.2673 4.02022 18.7723 3.65058C19.5898 3.0515 21.0407 1.99354 21.2723 1.48878C21.0603 1.37152 20.7673 1.28484 20.3571 1.28484C19.7907 1.28484 19.2411 1.4123 18.7054 1.52957C18.2478 1.62899 17.8209 1.71312 17.4554 1.71312C17.1317 1.71312 16.8945 1.64939 16.7188 1.48878C15.6194 0.443576 14.8103 0 13.9955 0ZM21.6741 3.09993C21.1244 3.60469 20.4213 4.1171 19.6652 4.67029C19.1881 5.01954 18.7165 5.3739 18.3259 5.69001C17.6367 6.26615 16.7969 6.57461 16.0268 6.52617C15.4269 6.48793 14.9191 6.2381 14.5312 5.81237C13.9844 5.18015 13.6775 5.06798 13.5491 5.05778C13.2366 5.05014 12.6702 5.53705 12.2098 5.93474C11.635 6.36812 10.9794 6.58736 10.2902 6.58736C10.0028 6.58736 9.72098 6.53892 9.41964 6.46499C8.8365 6.31968 8.26172 6.02396 7.70089 5.62882C8.40402 6.31203 9.40011 7.52549 9.57589 9.21822C11.0547 10.0544 14.4894 11.4667 18.5045 9.40177C18.7305 9.2845 18.9927 9.11625 19.2857 8.9327C19.308 8.9174 19.3276 8.90721 19.3527 8.89191C19.1574 6.46754 20.7143 4.59381 20.9152 4.36438L20.9821 4.2828C21.2249 3.93355 21.5039 3.52056 21.6741 3.09993ZM24.442 7.1584C23.0441 7.09976 21.7969 7.54079 20.7812 8.05574C20.7617 8.25714 20.7701 8.45598 20.7812 8.66757C21.1021 8.78739 21.4202 8.93525 21.7411 9.07546C23.2366 9.73318 24.7015 10.6331 26.0268 11.7267C26.0435 11.7293 26.0547 11.7267 26.0714 11.7267C26.2472 11.7267 26.423 11.663 26.5625 11.5432C26.8499 11.2959 26.8555 10.888 26.5848 10.6254C25.3544 9.43746 23.8365 8.91485 22.3438 8.81033C23.5212 8.37696 24.8996 8.25714 26.4509 9.03467C26.7969 9.20802 27.221 9.08566 27.4107 8.76954C27.6004 8.45343 27.4665 8.06594 27.1205 7.89259C26.1663 7.41587 25.2818 7.19409 24.442 7.1584ZM20.3125 9.87084C20.2372 9.91672 20.1618 9.96771 20.0893 10.0136C19.76 10.2201 19.4782 10.3883 19.2188 10.5235C17.4609 11.4285 15.784 11.7675 14.2857 11.7675C11.6853 11.7675 9.62054 10.7962 8.59375 10.1971C4.0625 11.9714 0 17.149 0 21.5772C0 28.6948 5.05022 30 15 30C24.9498 30 30 28.6948 30 21.5772C30 16.3052 25.1842 11.6477 20.3125 9.87084ZM13.9286 13.6846H15.2232V15.051C17.0815 15.3773 17.7232 16.5602 18.0804 17.8654H16.7857C16.5709 16.9528 15.9319 16.1727 14.5759 16.1727C12.6479 16.1727 12.433 17.3428 12.433 17.8654C12.433 19.1044 13.7109 19.3542 15.067 19.6805C16.7801 20.0731 18.5045 20.5982 18.5045 22.5561C18.5045 24.9065 16.2221 25.5693 15.2232 25.6356V26.7369H13.9286V25.6356C12.8571 25.4393 10.9291 24.8351 10.7143 22.291H12.0089C12.0089 23.0736 12.5753 24.5139 14.5759 24.5139C16.5039 24.5139 17.0089 23.6778 17.0089 22.6988C17.0089 19.8283 11.0045 21.7735 11.0045 17.9878C11.0045 15.8999 12.8571 15.1198 13.9286 14.9898V13.6846Z" fill="white"/>
</svg>
