<svg width="36" height="36" viewBox="0 0 36 36" fill="none" xmlns="http://www.w3.org/2000/svg">
<path id="Vector" fill-rule="evenodd" clip-rule="evenodd" d="M29.5459 14.5213L33.2245 10.8429C34.3387 9.72665 34.904 9.16751 35.199 8.56536C35.4775 7.99999 35.625 7.3776 35.625 6.74661C35.625 6.11562 35.4775 5.49323 35.199 4.92786C34.904 4.32571 34.3387 3.76657 33.2245 2.65034C32.1103 1.5341 31.5531 0.97496 30.9469 0.675932C30.3816 0.395746 29.7589 0.25 29.1281 0.25C28.4973 0.25 27.8746 0.395746 27.3093 0.675932C26.7113 0.97496 26.1459 1.5341 25.0317 2.65034L21.304 6.3759C23.2866 9.76884 26.1296 12.5786 29.5459 14.5213ZM18.33 9.35389L4.25488 23.4246C3.38645 24.2971 2.95218 24.7313 2.66543 25.2679C2.37868 25.8004 2.25586 26.4046 2.01827 27.613L0.756552 33.9151C0.617275 34.5951 0.551725 34.9351 0.748352 35.1297C0.936785 35.3243 1.28087 35.2546 1.96086 35.1195L8.26115 33.8578C9.47368 33.6182 10.0717 33.4973 10.6125 33.2106C11.145 32.9239 11.5792 32.4896 12.4476 31.6192L26.5638 17.5075C23.2457 15.4329 20.4355 12.6488 18.33 9.35594" fill="white" fill-opacity="0.8"/>
</svg>
