<svg width="497" height="495" viewBox="0 0 497 495" fill="none" xmlns="http://www.w3.org/2000/svg">
<g clip-path="url(#clip0_2_13)">
<path d="M263.262 20.2698V-1.97183H154.862L172.583 84.8195H326.689L343.017 20.2698H263.262Z" fill="white"/>
<path d="M221.216 272.26C221.216 275.877 221.23 284.109 233.737 287.69V256.83C221.23 260.412 221.216 268.643 221.216 272.26Z" fill="white"/>
<path d="M263.262 320.658V351.519C275.769 347.937 275.783 339.705 275.783 336.088C275.783 332.472 275.769 324.239 263.262 320.658Z" fill="white"/>
<path d="M319.354 113.824L319.367 113.768H178.493C79.0005 120.135 0 203.102 0 304.174C0 409.38 85.5916 494.972 190.799 494.972H306.201C411.408 494.972 497 409.379 497 304.174C496.999 203.385 418.453 120.599 319.354 113.824ZM248.5 445.828C170.391 445.828 106.846 382.283 106.846 304.175C106.846 226.066 170.391 162.52 248.5 162.52C326.608 162.52 390.153 226.065 390.153 304.174C390.153 382.282 326.608 445.828 248.5 445.828Z" fill="white"/>
<path d="M248.5 192.044C186.671 192.044 136.37 242.345 136.37 304.174C136.37 366.003 186.671 416.303 248.5 416.303C310.328 416.303 360.629 366.003 360.629 304.174C360.629 242.345 310.328 192.044 248.5 192.044ZM286.423 299.143C298.777 307.385 305.307 320.16 305.307 336.088C305.307 352.017 298.777 364.792 286.423 373.034C280.019 377.306 272.259 380.175 263.262 381.635V397.009H233.738V381.635C224.741 380.175 216.981 377.306 210.577 373.034C198.223 364.792 191.693 352.017 191.693 336.088H221.217C221.217 339.705 221.231 347.938 233.738 351.519V317.806C224.741 316.346 216.981 313.478 210.577 309.206C198.223 300.964 191.693 288.188 191.693 272.26C191.693 256.332 198.223 243.556 210.577 235.314C216.981 231.042 224.741 228.173 233.738 226.714V211.34H263.262V226.714C272.259 228.174 280.019 231.042 286.423 235.314C298.777 243.556 305.307 256.332 305.307 272.26H275.783C275.783 268.643 275.769 260.411 263.262 256.83V290.542C272.258 292.001 280.019 294.871 286.423 299.143Z" fill="white"/>
</g>
<defs>
<clipPath id="clip0_2_13">
<rect width="497" height="497" fill="white" transform="translate(0 -2)"/>
</clipPath>
</defs>
</svg>
