<svg width="37" height="35" viewBox="0 0 37 35" fill="none" xmlns="http://www.w3.org/2000/svg">
<path d="M34.947 15.5324L33.6982 15.225C33.5251 14.0814 33.223 12.966 32.7964 11.8977L33.7198 11.0189C34.219 10.5441 34.3257 9.79848 33.9787 9.20348L33.4471 8.29804C33.0993 7.70457 32.3891 7.42457 31.7215 7.61022L30.4704 7.9625C29.7432 7.06543 28.9171 6.25283 28.0068 5.53685L28.3646 4.30576C28.5555 3.64837 28.2688 2.94989 27.6676 2.6075L26.7465 2.08402C26.1437 1.74163 25.3856 1.84739 24.9042 2.33891L24.0101 3.24815C22.9236 2.82815 21.7915 2.53065 20.6316 2.36098L20.3187 1.12685C20.1494 0.462609 19.5451 0 18.8512 0H17.7887C17.0939 0 16.4904 0.462609 16.322 1.12685L16.009 2.3587C14.8475 2.52913 13.7154 2.82663 12.6305 3.24663L11.7372 2.33815C11.2558 1.84663 10.4992 1.74239 9.89338 2.0825L8.97226 2.60598C8.37028 2.94837 8.08359 3.64685 8.27523 4.30424L8.63302 5.53457C7.72271 6.25054 6.89663 7.06391 6.16946 7.96022L4.91759 7.60793C4.24761 7.42152 3.53977 7.70304 3.19357 8.295L2.66191 9.20196C2.31495 9.79467 2.42159 10.5411 2.92079 11.0159L3.84501 11.8954C3.41844 12.9637 3.1163 14.0791 2.9432 15.2227L1.69519 15.5301C1.01903 15.6967 0.546875 16.291 0.546875 16.9773V18.0235C0.546875 18.709 1.01826 19.3033 1.69133 19.4668L2.94243 19.775C3.11552 20.9186 3.41767 22.034 3.84423 23.1023L2.92079 23.9811C2.42159 24.4566 2.31495 25.2023 2.66191 25.7965L3.19357 26.702C3.54131 27.2954 4.2507 27.5762 4.91914 27.3898L6.17024 27.0375C6.8974 27.9346 7.72348 28.7472 8.63379 29.4632L8.276 30.6942C8.08513 31.3516 8.37182 32.0501 8.97303 32.3925L9.89416 32.916C10.4985 33.2584 11.2558 33.1541 11.7364 32.6611L12.6305 31.7518C13.717 32.1718 14.8491 32.4693 16.009 32.639L16.322 33.8732C16.4912 34.5374 17.0955 35 17.7887 35H18.8512C19.5459 35 20.1494 34.5366 20.3179 33.8724L20.6309 32.6413C21.7908 32.4709 22.9236 32.1734 24.0101 31.7534L24.9027 32.6618C25.3849 33.1541 26.1422 33.2584 26.7465 32.9175L27.6676 32.394C28.2696 32.0516 28.5563 31.3532 28.3646 30.6958L28.0068 29.4654C28.9171 28.7495 29.7432 27.9361 30.4704 27.0398L31.7223 27.3921C32.3915 27.5785 33.1001 27.297 33.4463 26.705L33.9779 25.798C34.3249 25.2053 34.2183 24.4589 33.7191 23.9841L32.7948 23.1046C33.2214 22.0348 33.5243 20.9193 33.6967 19.7773L34.9447 19.4699C35.6216 19.3033 36.0938 18.709 36.0938 18.0235V16.9773C36.0938 16.291 35.6224 15.6975 34.947 15.5324ZM8.95757 21.0647C8.52251 19.9576 8.27446 18.7585 8.27446 17.5C8.27446 16.2415 8.52251 15.0424 8.95757 13.9353L13.7641 16.6676C13.7139 16.9377 13.6838 17.2154 13.6838 17.5C13.6838 17.7846 13.7139 18.0623 13.7641 18.3324L8.95757 21.0647ZM16.7748 27.262C14.2494 26.877 12.0355 25.5751 10.5008 23.7018L15.3104 20.968C15.7385 21.3287 16.2339 21.611 16.7748 21.7997V27.262ZM16.7748 13.2003C16.2331 13.389 15.7378 13.6713 15.3104 14.032L10.5008 11.2982C12.0355 9.42489 14.2502 8.12304 16.7748 7.73804V13.2003ZM19.8658 7.73804C22.3912 8.12304 24.6052 9.42489 26.1399 11.2982L21.3302 14.032C20.9021 13.6713 20.4068 13.389 19.8658 13.2003V7.73804ZM19.8658 27.262V21.7997C20.4075 21.611 20.9029 21.3287 21.3302 20.968L26.1399 23.7018C24.6052 25.5751 22.3904 26.877 19.8658 27.262ZM27.6831 21.0647L22.8765 18.3324C22.9267 18.0623 22.9569 17.7846 22.9569 17.5C22.9569 17.2154 22.9267 16.9377 22.8765 16.6676L27.6831 13.9353C28.1181 15.0424 28.3662 16.2415 28.3662 17.5C28.3662 18.7585 28.1181 19.9576 27.6831 21.0647Z" fill="white"/>
</svg>
