<svg width="21" height="20" viewBox="0 0 21 20" fill="none" xmlns="http://www.w3.org/2000/svg">
<path fill-rule="evenodd" clip-rule="evenodd" d="M8.29751 0.303338C8.08751 0.151338 7.84756 0.053351 7.59756 0.016351C7.33756 -0.020649 7.07755 0.00533975 6.83755 0.0923397C5.70755 0.50634 4.65757 1.11433 3.72757 1.88833C3.53757 2.05533 3.3875 2.26636 3.2875 2.50436C3.1975 2.74336 3.15753 3.00134 3.18753 3.25634C3.26753 4.04134 3.12747 4.79834 2.74747 5.45034C2.36747 6.10334 1.78753 6.60235 1.06753 6.92635C0.827534 7.03035 0.627559 7.19036 0.467559 7.39236C0.307559 7.59436 0.1975 7.83235 0.1575 8.08535C-0.0525 9.27135 -0.0525 10.4833 0.1575 11.6693C0.2475 12.2283 0.637534 12.6333 1.06753 12.8293C1.78753 13.1523 2.36747 13.6523 2.74747 14.3043C3.12747 14.9573 3.26753 15.7133 3.18753 16.4983C3.13753 16.9693 3.29757 17.5024 3.72757 17.8664C4.65757 18.6404 5.70755 19.2483 6.83755 19.6623C7.07755 19.7493 7.33756 19.7753 7.59756 19.7383C7.84756 19.7013 8.08751 19.6033 8.29751 19.4513C8.93752 18.9914 9.66751 18.7313 10.4175 18.7313C11.1675 18.7313 11.8975 18.9914 12.5375 19.4513C12.9175 19.7283 13.4675 19.8573 13.9975 19.6623C15.1275 19.2483 16.1775 18.6404 17.1075 17.8664C17.5375 17.5024 17.6975 16.9703 17.6475 16.4983C17.5675 15.7133 17.7076 14.9563 18.0876 14.3043C18.4576 13.6513 19.0475 13.1533 19.7675 12.8293C20.1975 12.6343 20.5875 12.2283 20.6775 11.6693C20.8875 10.4833 20.8875 9.27135 20.6775 8.08535C20.6375 7.83235 20.5275 7.59436 20.3675 7.39236C20.2075 7.19036 20.0075 7.03035 19.7675 6.92635C19.0475 6.60235 18.4576 6.10334 18.0876 5.45034C17.7076 4.79834 17.5675 4.04134 17.6475 3.25634C17.6775 3.00134 17.6375 2.74336 17.5475 2.50436C17.4475 2.26636 17.2975 2.05533 17.1075 1.88833C16.1775 1.11433 15.1275 0.50634 13.9975 0.0923397C13.7575 0.00533975 13.4975 -0.020649 13.2375 0.016351C12.9875 0.053351 12.7475 0.151338 12.5375 0.303338C11.8975 0.762338 11.1675 1.02334 10.4175 1.02334C9.66751 1.02334 8.93752 0.763338 8.29751 0.303338ZM7.2875 9.87734C7.2875 9.04834 7.61755 8.25335 8.20755 7.66735C8.79755 7.08135 9.58751 6.75234 10.4175 6.75234C11.2475 6.75234 12.0375 7.08135 12.6275 7.66735C13.2175 8.25335 13.5375 9.04834 13.5375 9.87734C13.5375 10.7063 13.2175 11.5013 12.6275 12.0873C12.0375 12.6733 11.2475 13.0023 10.4175 13.0023C9.58751 13.0023 8.79755 12.6733 8.20755 12.0873C7.61755 11.5013 7.2875 10.7063 7.2875 9.87734Z" fill="#1974E6"/>
</svg>
