<svg width="38" height="36" viewBox="0 0 38 36" fill="none" xmlns="http://www.w3.org/2000/svg">
<g id="icons8-hashtag (1) 1">
<path id="Vector" d="M25.4337 22.1121C26.2324 22.4439 26.6225 23.3331 26.3048 24.0981C25.9871 24.8631 25.0819 25.2145 24.2831 24.8827L21.7519 23.8316L20.7451 26.2558C20.4274 27.0209 19.5222 27.3722 18.7234 27.0404C17.9246 26.7087 17.5346 25.8195 17.8523 25.0545L18.859 22.6302L15.9662 21.4289L14.9594 23.8531C14.6417 24.6182 13.7365 24.9695 12.9377 24.6378C12.1389 24.306 11.7489 23.4168 12.0666 22.6518L13.0734 20.2275L10.5421 19.1763C9.74336 18.8446 9.35331 17.9554 9.67102 17.1904C9.98872 16.4253 10.8939 16.074 11.6927 16.4058L14.2239 17.4569L15.3745 14.6863L12.8433 13.6352C12.0445 13.3034 11.6545 12.4142 11.9722 11.6492C12.2899 10.8842 13.1951 10.5329 13.9939 10.8646L16.5251 11.9158L17.5319 9.49149C17.8496 8.72646 18.7548 8.37515 19.5536 8.70687C20.3524 9.03859 20.7424 9.92781 20.4247 10.6928L19.4179 13.1171L22.3108 14.3184L23.3175 11.8942C23.6352 11.1292 24.5404 10.7778 25.3392 11.1096C26.138 11.4413 26.5281 12.3305 26.2104 13.0955L25.2036 15.5198L27.7348 16.571C28.5336 16.9027 28.9236 17.7919 28.6059 18.5569C28.2882 19.322 27.383 19.6733 26.5842 19.3416L24.053 18.2904L22.9024 21.061L25.4337 22.1121ZM17.1168 18.6583L20.0096 19.8596L21.1602 17.089L18.2674 15.8877L17.1168 18.6583Z" fill="white"/>
</g>
</svg>
