<svg width="141" height="141" viewBox="0 0 141 141" fill="none" xmlns="http://www.w3.org/2000/svg">
<g clip-path="url(#clip0_1_17)">
<path d="M65 10.3333C63.7802 10.3334 62.6089 10.8111 61.737 11.6641L10.832 53.2995C10.7732 53.3437 10.7155 53.3893 10.6589 53.4362L10.4857 53.582V53.5911C10.0176 54.0272 9.64422 54.5548 9.38864 55.1412C9.13307 55.7276 9.00078 56.3603 9 57C9 58.2377 9.49167 59.4247 10.3668 60.2998C11.242 61.175 12.429 61.6667 13.6667 61.6667H18.3333V113C18.3333 118.157 22.51 122.333 27.6667 122.333H102.333C107.49 122.333 111.667 118.157 111.667 113V61.6667H116.333C117.571 61.6667 118.758 61.175 119.633 60.2998C120.508 59.4247 121 58.2377 121 57C121 56.3588 120.869 55.7243 120.613 55.1363C120.358 54.5482 119.983 54.0191 119.514 53.582L119.441 53.5273C119.339 53.4346 119.233 53.3464 119.122 53.263L111.667 47.1654V29C111.667 26.424 109.576 24.3333 107 24.3333H102.333C99.7573 24.3333 97.6667 26.424 97.6667 29V35.7174L68.1628 11.582C67.3031 10.7829 66.1738 10.337 65 10.3333ZM79 71H97.6667V108.333H79V71Z" fill="white"/>
</g>
<defs>
<clipPath id="clip0_1_17">
<rect width="141" height="141" fill="white"/>
</clipPath>
</defs>
</svg>
