<svg width="30" height="30" viewBox="0 0 30 30" fill="none" xmlns="http://www.w3.org/2000/svg">
<path d="M15 0C14.8197 2.67847e-05 14.6411 0.0414703 14.4747 0.121932C14.3083 0.202393 14.1573 0.320273 14.0305 0.46875L0.276989 14.3647C0.191092 14.4381 0.121278 14.5338 0.0731677 14.6442C0.0250577 14.7545 -4.1014e-06 14.8764 5.03443e-10 15C5.03444e-10 15.2094 0.0718342 15.4102 0.1997 15.5582C0.327566 15.7063 0.500989 15.7895 0.681818 15.7895H4.09091V28.4211C4.09091 29.2926 4.70182 30 5.45455 30H10.9091C11.6618 30 12.2727 29.2926 12.2727 28.4211V18.9474H17.7273V28.4211C17.7273 29.2926 18.3382 30 19.0909 30H24.5455C25.2982 30 25.9091 29.2926 25.9091 28.4211V15.7895H29.3182C29.499 15.7895 29.6724 15.7063 29.8003 15.5582C29.9282 15.4102 30 15.2094 30 15C30 14.8764 29.9749 14.7545 29.9268 14.6442C29.8787 14.5338 29.8089 14.4381 29.723 14.3647L15.9775 0.478002C15.9748 0.474905 15.9721 0.471821 15.9695 0.46875C15.8427 0.320273 15.6917 0.202393 15.5253 0.121932C15.3589 0.0414703 15.1803 2.67847e-05 15 0Z" fill="white"/>
</svg>
