<svg width="51" height="49" viewBox="0 0 51 49" fill="none" xmlns="http://www.w3.org/2000/svg">
<path d="M28.6221 1.832C27.7297 1.1378 26.6315 0.760895 25.5009 0.760895C24.3704 0.760895 23.2721 1.1378 22.3797 1.832L1.07041 18.4036C-0.840894 19.8956 0.211304 22.9583 2.6335 22.9583H5.16761V43.2916C5.16761 44.6398 5.7031 45.9328 6.65651 46.8861C7.60981 47.8394 8.90271 48.3749 10.2509 48.3749H20.4176V33.125C20.4176 31.7768 20.9531 30.4838 21.9065 29.5305C22.8598 28.5772 24.1527 28.0416 25.5009 28.0416C26.8491 28.0416 28.1421 28.5772 29.0954 29.5305C30.0487 30.4838 30.5842 31.7768 30.5842 33.125V48.3749H40.7509C42.0991 48.3749 43.3921 47.8394 44.3454 46.8861C45.2987 45.9328 45.8342 44.6398 45.8342 43.2916V22.9583H48.3683C50.788 22.9583 51.8453 19.8956 49.9314 18.4062L28.6221 1.832Z" fill="white"/>
</svg>
