<svg width="512" height="512" viewBox="0 0 512 512" fill="none" xmlns="http://www.w3.org/2000/svg">
<g clip-path="url(#clip0_2_11)">
<path d="M298.667 170.667V64C298.667 40.4267 317.76 21.3333 341.333 21.3333H448C471.573 21.3333 490.667 40.4267 490.667 64V170.667C490.667 194.24 471.573 213.333 448 213.333H341.333C317.76 213.333 298.667 194.24 298.667 170.667ZM500.075 438.677L425.621 317.077C412.309 292.501 377.045 292.501 363.733 317.077L289.28 438.677C276.565 462.123 293.547 490.667 320.235 490.667H469.163C495.851 490.667 512.832 462.144 500.117 438.677H500.075ZM176.384 15.872C155.605 -4.92801 121.771 -4.92801 101.099 15.744L20.16 95.7653C7.59467 108.181 7.48801 128.448 19.904 141.013C32.3413 153.579 52.5867 153.707 65.1733 141.269L106.667 100.245V481.173C106.667 498.837 120.981 513.173 138.667 513.173C156.352 513.173 170.667 498.837 170.667 481.173V100.224L212.16 141.248C218.389 147.413 226.539 150.507 234.667 150.507C245.419 150.507 256.128 145.152 262.507 134.421C270.123 121.621 266.496 105.003 255.915 94.528L176.384 15.872Z" fill="white"/>
</g>
<defs>
<clipPath id="clip0_2_11">
<rect width="512" height="512" fill="white"/>
</clipPath>
</defs>
</svg>
