<svg width="55" height="55" viewBox="0 0 55 55" fill="none" xmlns="http://www.w3.org/2000/svg">
<path fill-rule="evenodd" clip-rule="evenodd" d="M27.6258 0.177002H27.3716C25.6839 0.177002 24.2276 0.176991 23.0609 0.334991C21.813 0.501991 20.6133 0.88099 19.6424 1.85199C18.6715 2.82299 18.2928 4.023 18.125 5.271C17.9674 6.437 17.9674 7.89401 17.9674 9.58401V15.752C17.3545 15.539 16.7103 15.429 16.0612 15.427H8.4362C7.6852 15.427 6.9416 15.575 6.2477 15.862C5.5539 16.15 4.9235 16.571 4.3924 17.102C3.8614 17.633 3.4402 18.264 3.1528 18.957C2.8654 19.651 2.7174 20.395 2.7174 21.146V51.01H2.082C1.5765 51.01 1.0916 51.211 0.734097 51.569C0.376597 51.926 0.175797 52.411 0.175797 52.917C0.175797 53.422 0.376597 53.907 0.734097 54.265C1.0916 54.622 1.5765 54.823 2.082 54.823H52.9154C53.4209 54.823 53.9058 54.622 54.2633 54.265C54.6208 53.907 54.8216 53.422 54.8216 52.917C54.8216 52.411 54.6208 51.926 54.2633 51.569C53.9058 51.211 53.4209 51.01 52.9154 51.01H52.2799V33.854C52.2799 32.337 51.6774 30.883 50.605 29.81C49.5325 28.738 48.0779 28.135 46.5612 28.135H38.9362C38.2652 28.139 37.6298 28.247 37.0299 28.461V9.58401C37.0299 7.89401 37.0299 6.437 36.8724 5.271C36.7046 4.023 36.3259 2.82299 35.355 1.85199C34.3841 0.88099 33.1869 0.501991 31.9364 0.334991C30.7698 0.176991 29.3134 0.177002 27.6232 0.177002M48.4649 51.01V33.854C48.4649 33.349 48.2641 32.864 47.9066 32.506C47.5491 32.149 47.0642 31.948 46.5587 31.948H38.9337C38.4281 31.948 37.9432 32.149 37.5857 32.506C37.2282 32.864 37.0274 33.349 37.0274 33.854V51.01H48.4649ZM33.2149 51.01V9.70801C33.2149 7.85801 33.2098 6.65799 33.0929 5.77899C32.9811 4.95299 32.8006 4.69401 32.6557 4.54901C32.5109 4.40401 32.2516 4.223 31.4256 4.112C30.5436 3.995 29.3465 3.98999 27.4962 3.98999C25.6458 3.98999 24.4462 3.995 23.5667 4.112C22.7407 4.223 22.4814 4.40401 22.3366 4.54901C22.1917 4.69401 22.0112 4.95299 21.8994 5.77899C21.7825 6.66099 21.7774 7.85801 21.7774 9.70801V51.01H33.2149ZM17.9649 51.01V21.146C17.9649 20.64 17.7641 20.155 17.4066 19.798C17.0491 19.44 16.5642 19.24 16.0587 19.24H8.4337C7.9281 19.24 7.4432 19.44 7.0857 19.798C6.7282 20.155 6.5274 20.64 6.5274 21.146V51.01H17.9649Z" fill="white"/>
</svg>
