<svg width="30" height="30" viewBox="0 0 30 30" fill="none" xmlns="http://www.w3.org/2000/svg">
<path fill-rule="evenodd" clip-rule="evenodd" d="M23.0444 10.0077C22.7222 10.3048 22.1978 10.4653 21.6644 10.4653C21.3422 10.4653 21.0156 10.4067 20.7289 10.2839L15.2689 7.95403C15.12 7.89264 14.8822 7.89404 14.7 7.96798L9.27111 10.2839C8.51111 10.6104 7.47333 10.4862 6.95556 10.0077C6.43778 9.52914 6.63556 8.87901 7.39556 8.55394L12.8556 6.22406C14.1711 5.68693 15.8289 5.68833 17.1156 6.2115L22.6044 8.55394C23.3644 8.87901 23.5622 9.52914 23.0444 10.0077ZM23.0444 15.5882C22.7222 15.8854 22.1978 16.0458 21.6644 16.0458C21.3422 16.0458 21.0156 15.9872 20.7289 15.8645L15.2689 13.5346C15.12 13.4746 14.8822 13.4732 14.7 13.5485L9.27111 15.8645C8.51111 16.1895 7.47333 16.0668 6.95556 15.5882C6.43778 15.1097 6.63556 14.4596 7.39556 14.1345L12.8556 11.8046C14.1711 11.2675 15.8289 11.2689 17.1156 11.7921L22.6044 14.1345C23.3644 14.4596 23.5622 15.1097 23.0444 15.5882ZM28.28 5.16794L17.1689 0.42168C15.8511 -0.14056 14.1467 -0.14056 12.8289 0.42168L1.71778 5.16794C0.642222 5.62834 0 6.39427 0 7.2174V22.7802C0 23.6047 0.642222 24.3706 1.71778 24.831L12.8267 29.5745C13.4867 29.8591 14.2444 30 15 30C15.7556 30 16.5111 29.8591 17.1689 29.5759L28.28 24.831C29.3578 24.3706 30 23.6047 30 22.7802V7.2174C30 6.39427 29.3578 5.62834 28.28 5.16794Z" fill="white"/>
</svg>
