<svg xmlns="http://www.w3.org/2000/svg"  viewBox="0 0 64 64" width="50px" height="50px"><path d="M56.18,16.83c-0.55-4.73-4.28-8.46-9.01-9.01C43.38,7.38,38.26,7,32,7S20.62,7.38,16.83,7.82	c-4.73,0.55-8.46,4.28-9.01,9.01C7.38,20.62,7,25.74,7,32s0.38,11.38,0.82,15.17c0.55,4.73,4.28,8.46,9.01,9.01	C20.62,56.62,25.74,57,32,57s11.38-0.38,15.17-0.82c4.73-0.55,8.46-4.28,9.01-9.01C56.62,43.38,57,38.26,57,32	S56.62,20.62,56.18,16.83z M47,33.765l-12.353,0.882L33.765,47h-3.529l-0.882-12.353L17,33.765v-3.529l12.353-0.882L30.235,17h3.529	l0.882,12.353L47,30.235V33.765z"/></svg>