<svg width="34" height="34" viewBox="0 0 34 34" fill="none" xmlns="http://www.w3.org/2000/svg">
<path id="Vector" d="M17 0C26.389 0 34 7.61104 34 17C34 26.389 26.389 34 17 34C7.61104 34 0 26.389 0 17C0 7.61104 7.61104 0 17 0ZM22.6667 19.125C23.8404 19.125 24.7917 18.1737 24.7917 17C24.7917 15.8263 23.8404 14.875 22.6667 14.875C22.4336 14.875 20.9482 14.875 19.125 14.875C19.125 13.0518 19.125 11.5657 19.125 11.3333C19.125 10.1596 18.1737 9.20833 17 9.20833C15.8263 9.20833 14.875 10.1596 14.875 11.3333C14.875 11.5657 14.875 13.0518 14.875 14.875C13.0518 14.875 11.5664 14.875 11.3333 14.875C10.1596 14.875 9.20833 15.8263 9.20833 17C9.20833 18.1737 10.1596 19.125 11.3333 19.125C11.5664 19.125 13.0518 19.125 14.875 19.125C14.875 20.9482 14.875 22.4343 14.875 22.6667C14.875 23.8404 15.8263 24.7917 17 24.7917C18.1737 24.7917 19.125 23.8404 19.125 22.6667C19.125 22.4343 19.125 20.9482 19.125 19.125C20.9482 19.125 22.4336 19.125 22.6667 19.125Z" fill="white"/>
</svg>
