<svg width="762" height="800" viewBox="0 0 762 800" fill="none" xmlns="http://www.w3.org/2000/svg">
<path d="M512.305 62.5552V164.045C604.718 211.764 668.069 308.078 668.069 419.335C668.069 578.045 539.402 706.764 380.692 706.764C221.929 706.764 93.209 578.045 93.209 419.335C93.209 317.314 146.608 227.847 226.68 176.864V71.3665C93.2621 130.525 0 263.942 0 419.361C0 629.586 170.388 800 380.586 800C590.89 800 761.225 629.586 761.225 419.361C761.198 255.422 657.4 116.219 512.305 62.5552Z" fill="#030104"/>
<path d="M373.261 468.487C415.088 468.487 419.335 443.778 419.335 413.39V55.2035C419.335 24.7354 415.088 0 373.261 0C331.593 0 327.293 24.7354 327.293 55.2035V413.39C327.267 443.805 331.593 468.487 373.261 468.487Z" fill="#030104"/>
</svg>
