<svg width="35" height="35" viewBox="0 0 35 35" fill="none" xmlns="http://www.w3.org/2000/svg">
<path d="M33.8644 24.0597L30.4431 20.3497C29.5814 19.4167 28.3434 18.8816 27.0432 18.8816H26.7388C25.9336 18.8816 25.28 18.2626 25.28 17.5C25.28 16.7374 25.9336 16.1184 26.7388 16.1184H26.9362H28.6838C31.6325 16.1184 34.0326 13.8453 34.0326 11.0526V5.06579C34.0326 2.27316 31.6325 0 28.6838 0H7.9568C6.65656 0 5.41856 0.535131 4.55692 1.46908L1.13564 5.17816C-0.378548 6.82039 -0.378548 9.29803 1.13564 10.9403L4.55692 14.6503C5.40397 15.5667 6.61572 16.0936 7.89067 16.1111L11.1816 16.1175C11.9869 16.1184 12.6384 16.7383 12.6375 17.5018C12.6365 18.2636 11.983 18.8807 11.1787 18.8807H11.1758H6.31618C3.36754 18.8816 0.9674 21.1547 0.9674 23.9474V29.9342C0.9674 32.7268 3.36754 35 6.31618 35H27.0432C28.3434 35 29.5814 34.4649 30.4431 33.5309L33.8644 29.8218C35.3786 28.1796 35.3786 25.702 33.8644 24.0597ZM17.5 27.6316C16.4254 27.6316 15.555 26.8072 15.555 25.7895C15.555 24.7717 16.4254 23.9474 17.5 23.9474C18.5746 23.9474 19.445 24.7717 19.445 25.7895C19.445 26.8063 18.5746 27.6316 17.5 27.6316ZM20.7073 17.7579C19.692 18.6559 18.9588 19.3053 18.9588 20.7237C18.9588 21.4863 18.3052 22.1053 17.5 22.1053C16.6948 22.1053 16.0412 21.4863 16.0412 20.7237C16.0412 18.1051 17.5233 16.7926 18.7147 15.7389C19.833 14.7488 20.4175 14.1732 20.4175 12.8947C20.4175 11.3713 19.1085 10.1316 17.5 10.1316C15.8915 10.1316 14.5825 11.3713 14.5825 12.8947C14.5825 13.6574 13.929 14.2763 13.1237 14.2763C12.3185 14.2763 11.665 13.6574 11.665 12.8947C11.665 9.84697 14.282 7.36842 17.5 7.36842C20.718 7.36842 23.335 9.84697 23.335 12.8947C23.335 15.4313 21.8773 16.7208 20.7073 17.7579Z" fill="white"/>
</svg>
