<svg width="433" height="433" viewBox="0 0 433 433" fill="none" xmlns="http://www.w3.org/2000/svg">
<g clip-path="url(#clip0_2_2)">
<path d="M276.943 160.378C274.114 163.207 274.114 167.794 276.943 170.622C278.357 172.037 280.211 172.744 282.065 172.744C283.918 172.744 285.773 172.037 287.187 170.622C326.162 131.646 326.162 68.2257 287.187 29.2488C284.358 26.4198 279.771 26.4198 276.943 29.2488C274.114 32.0778 274.114 36.6636 276.943 39.4926C310.269 72.8222 310.27 127.051 276.943 160.378Z" fill="white"/>
<path d="M256.817 22.7496C259.297 28.6268 267.94 28.5863 270.259 22.5825C271.412 19.5952 270.41 16.0756 267.833 14.168C265.543 12.473 262.412 12.2827 259.932 13.6813C256.788 15.4536 255.441 19.4165 256.817 22.7496C257.001 23.1843 256.634 22.3053 256.817 22.7496Z" fill="white"/>
<path d="M150.936 172.745C152.79 172.745 154.644 172.038 156.058 170.623C158.887 167.794 158.887 163.208 156.058 160.379C122.731 127.052 122.731 72.8231 156.058 39.4946C172.185 23.3687 193.65 14.4877 216.5 14.4877C225.141 14.4877 233.649 15.7559 241.784 18.2575C245.607 19.4319 249.661 17.2858 250.837 13.462C252.012 9.63821 249.865 5.58454 246.041 4.4091C236.525 1.48354 226.585 0 216.5 0C189.78 0 164.676 10.3877 145.813 29.2508C106.838 68.2266 106.838 131.647 145.813 170.624C147.228 172.038 149.082 172.745 150.936 172.745Z" fill="white"/>
<path d="M254.405 148.085C255.819 149.5 257.673 150.207 259.527 150.207C261.38 150.207 263.235 149.5 264.649 148.085C277.491 135.243 284.564 118.144 284.564 99.9365C284.564 81.7292 277.491 64.6298 264.649 51.7879C238.099 25.2386 194.901 25.2386 168.351 51.7879C155.509 64.6298 148.436 81.7292 148.436 99.9365C148.436 118.143 155.509 135.242 168.351 148.085C171.18 150.914 175.767 150.914 178.595 148.085C181.424 145.256 181.424 140.669 178.595 137.841C168.49 127.736 162.923 114.274 162.923 99.9374C162.923 85.6004 168.49 72.1393 178.595 62.0327C188.701 51.926 202.164 46.3608 216.5 46.3608C230.837 46.3608 244.298 51.926 254.405 62.0327C264.511 72.1393 270.077 85.6004 270.077 99.9374C270.077 114.274 264.51 127.736 254.405 137.841C251.575 140.669 251.575 145.256 254.405 148.085Z" fill="white"/>
<path d="M280.132 385.673H277.215L234.086 131.583C245.19 125.389 252.718 113.528 252.718 99.9355C252.718 79.9636 236.471 63.7161 216.499 63.7161C196.527 63.7161 180.28 79.9636 180.28 99.9355C180.28 113.528 187.809 125.389 198.913 131.583L155.785 385.673H152.868C142.811 385.673 134.631 393.854 134.631 403.911V425.756C134.631 429.757 137.874 433 141.875 433H291.125C295.126 433 298.369 429.757 298.369 425.756V403.911C298.369 393.854 290.189 385.673 280.132 385.673ZM216.5 78.2048C228.483 78.2048 238.232 87.9532 238.232 99.9364C238.232 111.92 228.483 121.668 216.5 121.668C204.517 121.668 194.768 111.92 194.768 99.9364C194.768 87.9532 204.517 78.2048 216.5 78.2048ZM216.5 136.156C217.728 136.156 218.941 136.093 220.137 135.973L242.179 265.832H190.821L212.863 135.973C214.059 136.093 215.272 136.156 216.5 136.156ZM188.362 280.319H244.638L262.521 385.673H170.479L188.362 280.319ZM283.882 418.512H149.118V403.911C149.118 401.843 150.8 400.161 152.868 400.161H280.132C282.2 400.161 283.882 401.843 283.882 403.911V418.512Z" fill="white"/>
</g>
<defs>
<clipPath id="clip0_2_2">
<rect width="433" height="433" fill="white"/>
</clipPath>
</defs>
</svg>
