<svg width="59" height="53" viewBox="0 0 59 53" fill="none" xmlns="http://www.w3.org/2000/svg">
<path d="M46.3854 7.772L26.3113 0.243011L24.5245 5.004L31.7302 7.70801H5.0833C2.2799 7.70801 0 9.98799 0 12.792V43.292C0 46.095 2.2799 48.375 5.0833 48.375H45.75C48.5535 48.375 50.8333 46.095 50.8333 43.292V12.792C50.8333 10.204 48.8839 8.09 46.3854 7.772ZM5.0833 43.292V25.5H45.75V20.417H5.0833V12.792H45.75L45.7525 43.292H5.0833Z" fill="white"/>
<path d="M52.3542 13.708C55.8635 13.708 58.7083 10.863 58.7083 7.354C58.7083 3.845 55.8635 1 52.3542 1C48.8449 1 46 3.845 46 7.354C46 10.863 48.8449 13.708 52.3542 13.708Z" fill="white"/>
<path d="M19 47H31.7058V52.083H19V47Z" fill="white"/>
</svg>
