<svg width="30" height="30" viewBox="0 0 30 30" fill="none" xmlns="http://www.w3.org/2000/svg">
<path d="M26.4 0C26.1461 0.000279211 25.8987 0.0920941 25.6936 0.262234C25.4885 0.432373 25.3362 0.672065 25.2586 0.946822L4.07344 6.15234C3.93948 6.18521 3.81945 6.26919 3.73332 6.39032C3.64719 6.51146 3.60014 6.66245 3.6 6.81818V8.18182H3C1.3458 8.18182 0 9.71114 0 11.5909V28.6364C0 29.3884 0.5382 30 1.2 30H28.8C29.4618 30 30 29.3884 30 28.6364V11.5909C30 9.71114 28.6542 8.18182 27 8.18182H4.8V7.36816L25.5117 2.2785C25.624 2.41958 25.7611 2.53239 25.9141 2.60968C26.0671 2.68697 26.2326 2.72702 26.4 2.72727C26.7183 2.72727 27.0235 2.5836 27.2485 2.32787C27.4736 2.07214 27.6 1.7253 27.6 1.36364C27.6 1.00198 27.4736 0.655131 27.2485 0.3994C27.0235 0.143668 26.7183 0 26.4 0ZM3.6 12.2727H10.8V16.3636H3.6V12.2727ZM12 12.2727H26.4V16.3636H12V12.2727ZM4.2 19.0909C4.5312 19.0909 4.8 19.3964 4.8 19.7727C4.8 20.1491 4.5312 20.4545 4.2 20.4545C3.8688 20.4545 3.6 20.1491 3.6 19.7727C3.6 19.3964 3.8688 19.0909 4.2 19.0909ZM7.8 19.0909C8.1312 19.0909 8.4 19.3964 8.4 19.7727C8.4 20.1491 8.1312 20.4545 7.8 20.4545C7.4688 20.4545 7.2 20.1491 7.2 19.7727C7.2 19.3964 7.4688 19.0909 7.8 19.0909ZM11.4 19.0909C11.7312 19.0909 12 19.3964 12 19.7727C12 20.1491 11.7312 20.4545 11.4 20.4545C11.0688 20.4545 10.8 20.1491 10.8 19.7727C10.8 19.3964 11.0688 19.0909 11.4 19.0909ZM15 19.0909C15.3312 19.0909 15.6 19.3964 15.6 19.7727C15.6 20.1491 15.3312 20.4545 15 20.4545C14.6688 20.4545 14.4 20.1491 14.4 19.7727C14.4 19.3964 14.6688 19.0909 15 19.0909ZM18.6 19.0909C18.9312 19.0909 19.2 19.3964 19.2 19.7727C19.2 20.1491 18.9312 20.4545 18.6 20.4545C18.2688 20.4545 18 20.1491 18 19.7727C18 19.3964 18.2688 19.0909 18.6 19.0909ZM23.7 19.7727C24.228 19.7727 24.7163 19.9523 25.132 20.2495L23.5758 22.0179C23.5182 22.0808 23.4722 22.156 23.4406 22.2393C23.4089 22.3225 23.3921 22.4122 23.3913 22.5029C23.3905 22.5936 23.4056 22.6836 23.4358 22.7676C23.466 22.8515 23.5106 22.9278 23.5671 22.992C23.6235 23.0561 23.6906 23.1068 23.7646 23.1411C23.8385 23.1754 23.9176 23.1926 23.9975 23.1917C24.0773 23.1907 24.1562 23.1717 24.2294 23.1357C24.3027 23.0997 24.3689 23.0475 24.4242 22.9821L25.9816 21.2123C26.2435 21.6851 26.4 22.2409 26.4 22.8409C26.4 24.5352 25.1928 25.9091 23.7 25.9091C22.2084 25.9091 21 24.5352 21 22.8409C21 21.1466 22.2084 19.7727 23.7 19.7727ZM6 20.4545C6.3312 20.4545 6.6 20.76 6.6 21.1364C6.6 21.5127 6.3312 21.8182 6 21.8182C5.6688 21.8182 5.4 21.5127 5.4 21.1364C5.4 20.76 5.6688 20.4545 6 20.4545ZM9.6 20.4545C9.9312 20.4545 10.2 20.76 10.2 21.1364C10.2 21.5127 9.9312 21.8182 9.6 21.8182C9.2688 21.8182 9 21.5127 9 21.1364C9 20.76 9.2688 20.4545 9.6 20.4545ZM13.2 20.4545C13.5312 20.4545 13.8 20.76 13.8 21.1364C13.8 21.5127 13.5312 21.8182 13.2 21.8182C12.8688 21.8182 12.6 21.5127 12.6 21.1364C12.6 20.76 12.8688 20.4545 13.2 20.4545ZM16.8 20.4545C17.1312 20.4545 17.4 20.76 17.4 21.1364C17.4 21.5127 17.1312 21.8182 16.8 21.8182C16.4688 21.8182 16.2 21.5127 16.2 21.1364C16.2 20.76 16.4688 20.4545 16.8 20.4545ZM4.2 21.8182C4.5312 21.8182 4.8 22.1236 4.8 22.5C4.8 22.8764 4.5312 23.1818 4.2 23.1818C3.8688 23.1818 3.6 22.8764 3.6 22.5C3.6 22.1236 3.8688 21.8182 4.2 21.8182ZM7.8 21.8182C8.1312 21.8182 8.4 22.1236 8.4 22.5C8.4 22.8764 8.1312 23.1818 7.8 23.1818C7.4688 23.1818 7.2 22.8764 7.2 22.5C7.2 22.1236 7.4688 21.8182 7.8 21.8182ZM11.4 21.8182C11.7312 21.8182 12 22.1236 12 22.5C12 22.8764 11.7312 23.1818 11.4 23.1818C11.0688 23.1818 10.8 22.8764 10.8 22.5C10.8 22.1236 11.0688 21.8182 11.4 21.8182ZM15 21.8182C15.3312 21.8182 15.6 22.1236 15.6 22.5C15.6 22.8764 15.3312 23.1818 15 23.1818C14.6688 23.1818 14.4 22.8764 14.4 22.5C14.4 22.1236 14.6688 21.8182 15 21.8182ZM18.6 21.8182C18.9312 21.8182 19.2 22.1236 19.2 22.5C19.2 22.8764 18.9312 23.1818 18.6 23.1818C18.2688 23.1818 18 22.8764 18 22.5C18 22.1236 18.2688 21.8182 18.6 21.8182ZM6 23.1818C6.3312 23.1818 6.6 23.4873 6.6 23.8636C6.6 24.24 6.3312 24.5455 6 24.5455C5.6688 24.5455 5.4 24.24 5.4 23.8636C5.4 23.4873 5.6688 23.1818 6 23.1818ZM9.6 23.1818C9.9312 23.1818 10.2 23.4873 10.2 23.8636C10.2 24.24 9.9312 24.5455 9.6 24.5455C9.2688 24.5455 9 24.24 9 23.8636C9 23.4873 9.2688 23.1818 9.6 23.1818ZM13.2 23.1818C13.5312 23.1818 13.8 23.4873 13.8 23.8636C13.8 24.24 13.5312 24.5455 13.2 24.5455C12.8688 24.5455 12.6 24.24 12.6 23.8636C12.6 23.4873 12.8688 23.1818 13.2 23.1818ZM16.8 23.1818C17.1312 23.1818 17.4 23.4873 17.4 23.8636C17.4 24.24 17.1312 24.5455 16.8 24.5455C16.4688 24.5455 16.2 24.24 16.2 23.8636C16.2 23.4873 16.4688 23.1818 16.8 23.1818ZM4.2 24.5455C4.5312 24.5455 4.8 24.8509 4.8 25.2273C4.8 25.6036 4.5312 25.9091 4.2 25.9091C3.8688 25.9091 3.6 25.6036 3.6 25.2273C3.6 24.8509 3.8688 24.5455 4.2 24.5455ZM7.8 24.5455C8.1312 24.5455 8.4 24.8509 8.4 25.2273C8.4 25.6036 8.1312 25.9091 7.8 25.9091C7.4688 25.9091 7.2 25.6036 7.2 25.2273C7.2 24.8509 7.4688 24.5455 7.8 24.5455ZM11.4 24.5455C11.7312 24.5455 12 24.8509 12 25.2273C12 25.6036 11.7312 25.9091 11.4 25.9091C11.0688 25.9091 10.8 25.6036 10.8 25.2273C10.8 24.8509 11.0688 24.5455 11.4 24.5455ZM15 24.5455C15.3312 24.5455 15.6 24.8509 15.6 25.2273C15.6 25.6036 15.3312 25.9091 15 25.9091C14.6688 25.9091 14.4 25.6036 14.4 25.2273C14.4 24.8509 14.6688 24.5455 15 24.5455ZM18.6 24.5455C18.9312 24.5455 19.2 24.8509 19.2 25.2273C19.2 25.6036 18.9312 25.9091 18.6 25.9091C18.2688 25.9091 18 25.6036 18 25.2273C18 24.8509 18.2688 24.5455 18.6 24.5455Z" fill="white"/>
</svg>
