<svg width="51" height="53" viewBox="0 0 51 53" fill="none" xmlns="http://www.w3.org/2000/svg">
<path d="M33.7297 23.475L32.2835 27.781C31.7458 29.417 30.8316 30.904 29.6146 32.122C28.3975 33.341 26.9116 34.256 25.2761 34.796L20.9223 36.242C20.7751 36.29 20.6468 36.383 20.5558 36.508C20.4647 36.633 20.4157 36.784 20.4157 36.939C20.4157 37.093 20.4647 37.244 20.5558 37.369C20.6468 37.494 20.7751 37.587 20.9223 37.635L25.2761 39.081C26.8966 39.62 28.369 40.53 29.5762 41.738C30.7834 42.946 31.6921 44.419 32.2301 46.04L33.6738 50.399C33.7201 50.548 33.8126 50.678 33.9379 50.77C34.0632 50.862 34.2147 50.912 34.3702 50.912C34.5258 50.912 34.6772 50.862 34.8025 50.77C34.9278 50.678 35.0204 50.548 35.0666 50.399L36.5662 46.094C37.104 44.473 38.0124 43 39.2191 41.792C40.4258 40.584 41.8977 39.674 43.5177 39.135L47.8741 37.688C48.0213 37.641 48.1496 37.548 48.2406 37.423C48.3316 37.297 48.3807 37.147 48.3807 36.992C48.3807 36.837 48.3316 36.687 48.2406 36.561C48.1496 36.436 48.0213 36.343 47.8741 36.296L43.5736 34.796C41.9372 34.258 40.4503 33.343 39.233 32.125C38.0157 30.906 37.1022 29.418 36.5662 27.781L35.12 23.422C35.079 23.315 35.0134 23.218 34.9285 23.141C34.8436 23.063 34.7418 23.007 34.6311 22.976C34.5205 22.945 34.4041 22.94 34.2913 22.962C34.1785 22.984 34.0723 23.032 33.9814 23.102C33.8613 23.199 33.7736 23.327 33.7297 23.475ZM12.3035 10.988L11.2538 14.117C10.8622 15.307 10.1969 16.388 9.3114 17.274C8.4259 18.16 7.3448 18.826 6.1552 19.218L2.9883 20.27C2.8824 20.306 2.7904 20.374 2.7252 20.465C2.6601 20.556 2.625 20.664 2.625 20.776C2.625 20.888 2.6601 20.997 2.7252 21.088C2.7904 21.178 2.8824 21.246 2.9883 21.282L6.1552 22.337C7.3336 22.728 8.4045 23.389 9.2825 24.267C10.1606 25.145 10.8216 26.216 11.2131 27.395L12.2628 30.567C12.2985 30.673 12.3665 30.765 12.4572 30.83C12.548 30.895 12.6569 30.93 12.7686 30.93C12.8803 30.93 12.9892 30.895 13.08 30.83C13.1707 30.765 13.2387 30.673 13.2744 30.567L14.3673 27.435C14.7605 26.258 15.4222 25.188 16.3 24.31C17.1778 23.432 18.2477 22.771 19.4252 22.377L22.5896 21.323C22.6955 21.287 22.7875 21.219 22.8526 21.128C22.9178 21.037 22.9529 20.929 22.9529 20.817C22.9529 20.705 22.9178 20.596 22.8526 20.505C22.7875 20.415 22.6955 20.347 22.5896 20.311L19.4634 19.218C18.2732 18.827 17.1917 18.162 16.3064 17.276C15.4211 16.39 14.7568 15.308 14.3673 14.117L13.3151 10.948C13.2753 10.843 13.2037 10.753 13.1103 10.692C13.0169 10.63 12.9065 10.599 12.7946 10.604C12.6828 10.608 12.5752 10.648 12.487 10.717C12.3989 10.786 12.3347 10.881 12.3035 10.988ZM32.253 2.291L31.7269 3.856C31.5324 4.452 31.2006 4.99296 30.7581 5.43596C30.3157 5.87996 29.7751 6.212 29.1801 6.408L27.5967 6.93401C27.557 6.94701 27.521 6.96901 27.4915 6.99901C27.462 7.02801 27.4399 7.06399 27.427 7.10399C27.4141 7.14399 27.4108 7.18597 27.4173 7.22697C27.4239 7.26797 27.44 7.30699 27.4645 7.34099C27.4963 7.38799 27.5428 7.42299 27.5967 7.43999L29.1801 7.96599C29.7694 8.16199 30.3048 8.49201 30.7438 8.93101C31.1828 9.37001 31.5134 9.90598 31.7091 10.495L32.2327 12.081C32.2499 12.135 32.2838 12.182 32.3295 12.215C32.3752 12.249 32.4303 12.267 32.4869 12.267C32.5434 12.267 32.5985 12.249 32.6442 12.215C32.6899 12.182 32.7238 12.135 32.741 12.081L33.2849 10.515C33.4807 9.926 33.8112 9.39101 34.2502 8.95201C34.6893 8.51301 35.2247 8.18201 35.8139 7.98601L37.3974 7.46001C37.4512 7.44301 37.4982 7.409 37.5315 7.364C37.5649 7.318 37.5829 7.26298 37.5829 7.20598C37.5829 7.14998 37.5649 7.095 37.5315 7.049C37.4982 7.003 37.4512 6.96901 37.3974 6.95201L35.8342 6.408C35.2388 6.213 34.6977 5.88 34.2548 5.437C33.8119 4.993 33.4796 4.452 33.2849 3.856L32.7588 2.27C32.7389 2.218 32.7031 2.17301 32.6564 2.14201C32.6097 2.11201 32.5545 2.09601 32.4986 2.09801C32.4427 2.10101 32.3889 2.12001 32.3448 2.15501C32.3007 2.18901 32.2686 2.237 32.253 2.291Z" stroke="white" stroke-width="3.8125" stroke-linecap="round" stroke-linejoin="round"/>
</svg>
