<svg width="36" height="36" viewBox="0 0 36 36" fill="none" xmlns="http://www.w3.org/2000/svg">
<path d="M29.7917 5.77632L22.7917 0.25H13.4584L6.45835 5.77632H2.95835V31.5658C2.95835 33.5921 5.05835 35.25 7.62502 35.25H28.625C31.1917 35.25 33.2917 33.5921 33.2917 31.5658V5.77632H29.7917Z" fill="#4D4D4D"/>
<path d="M18.7083 30.6448H17.5417C16.6083 30.6448 15.7917 30 15.7917 29.2632V11.7632C15.7917 11.0263 16.6083 10.3816 17.5417 10.3816H18.7083C19.6417 10.3816 20.4583 11.0263 20.4583 11.7632V29.2632C20.4583 30 19.6417 30.6448 18.7083 30.6448ZM26.875 30.6448C25.9417 30.6448 25.125 30 25.125 29.2632V11.7632C25.125 11.0263 25.9417 10.3816 26.875 10.3816C27.8083 10.3816 28.625 11.0263 28.625 11.7632V29.2632C28.625 30 27.8083 30.6448 26.875 30.6448ZM9.375 30.6448C8.44167 30.6448 7.625 30 7.625 29.2632V11.7632C7.625 11.0263 8.44167 10.3816 9.375 10.3816C10.3083 10.3816 11.125 11.0263 11.125 11.7632V29.2632C11.125 30 10.3083 30.6448 9.375 30.6448Z" fill="white" fill-opacity="0.8"/>
<path d="M2.95833 2.09204H33.2917C34.575 2.09204 35.625 2.92099 35.625 3.93415V5.77625H0.625V3.93415C0.625 2.92099 1.675 2.09204 2.95833 2.09204Z" fill="white" fill-opacity="0.8"/>
</svg>
