<svg width="28" height="25" viewBox="0 0 28 25" fill="none" xmlns="http://www.w3.org/2000/svg">
<path id="Vector" d="M18.5094 19.1004C18.3092 19.1004 18.1063 19.0544 17.9131 18.9575C17.2161 18.6074 16.9182 17.7228 17.2478 16.982C17.8684 15.5891 18.1831 14.0943 18.1831 12.5397C18.1831 10.9756 17.8646 9.4729 17.2375 8.07402C16.9061 7.33428 17.2017 6.44917 17.8982 6.09661C18.5946 5.74553 19.428 6.05804 19.7599 6.79778C20.5672 8.59866 20.9764 10.5301 20.9764 12.5392C20.9764 14.5364 20.5714 16.4574 19.773 18.2504C19.5341 18.7869 19.0327 19.1004 18.5094 19.1004ZM23.0682 23.1709C22.7665 23.1709 22.4606 23.0819 22.1878 22.8955C21.4308 22.3783 21.212 21.3077 21.699 20.5037C23.1343 18.1332 23.8931 15.3829 23.8931 12.5495C23.8931 9.43829 22.9909 6.4645 21.2842 3.94909C20.7581 3.17375 20.9238 2.09183 21.6538 1.53307C22.3824 0.973321 23.4015 1.14936 23.9285 1.92519C26.037 5.03348 27.152 8.70695 27.152 12.549C27.152 16.048 26.2139 19.446 24.4397 22.3763C24.1282 22.8906 23.6036 23.1709 23.0682 23.1709ZM0.152039 9.91991C0.152039 7.58202 2.01427 6.45955 3.48543 6.45955L4.98499 6.49565L10.2816 0.87047C11.0829 0.0194733 12.277 -0.233699 13.3255 0.227154C14.373 0.688008 15.0499 1.76399 15.0499 2.96805V22.0326C15.0499 23.2159 14.3892 24.2845 13.3669 24.7552C13.0089 24.9199 12.6313 25 12.2565 25C11.5601 25 10.8738 24.7231 10.3459 24.197L5.00501 18.8789L3.42165 18.8843C2.47983 18.955 0.152039 17.9661 0.152039 15.423V9.91991Z" fill="#E8E8E8"/>
</svg>
